<?xml version="1.0" encoding="UTF-8"?>
<svg xmlns="http://www.w3.org/2000/svg" viewBox="0 0 1920 1200" preserveAspectRatio="xMidYMid slice" width="1920" height="1200">
  <defs>
    <linearGradient id="sky" x1="0" y1="0" x2="0" y2="1">
      <stop offset="0%" stop-color="#020617"/>
      <stop offset="55%" stop-color="#0c1e3a"/>
      <stop offset="100%" stop-color="#0e2a4a"/>
    </linearGradient>
    <linearGradient id="sea" x1="0" y1="0" x2="0" y2="1">
      <stop offset="0%" stop-color="#0a3a5e"/>
      <stop offset="100%" stop-color="#021327"/>
    </linearGradient>
    <radialGradient id="haze" cx="0.5" cy="0.55" r="0.4">
      <stop offset="0%" stop-color="#67e8f9" stop-opacity="0.25"/>
      <stop offset="100%" stop-color="#67e8f9" stop-opacity="0"/>
    </radialGradient>
    <radialGradient id="moon" cx="0.5" cy="0.55" r="0.07">
      <stop offset="0%" stop-color="#e0f2fe" stop-opacity="0.85"/>
      <stop offset="100%" stop-color="#e0f2fe" stop-opacity="0"/>
    </radialGradient>
  </defs>
  <rect width="1920" height="1200" fill="url(#sky)"/>
  <g fill="#ffffff">
    <circle cx="200" cy="120" r="1" opacity="0.55"/>
    <circle cx="500" cy="80" r="0.8" opacity="0.45"/>
    <circle cx="780" cy="180" r="1" opacity="0.5"/>
    <circle cx="1100" cy="100" r="0.9" opacity="0.5"/>
    <circle cx="1380" cy="200" r="1.1" opacity="0.6"/>
    <circle cx="1700" cy="120" r="0.8" opacity="0.45"/>
    <circle cx="380" cy="240" r="0.7" opacity="0.4"/>
    <circle cx="900" cy="60" r="1" opacity="0.5"/>
    <circle cx="1500" cy="280" r="0.8" opacity="0.45"/>
    <circle cx="1820" cy="200" r="0.9" opacity="0.5"/>
  </g>
  <rect y="660" width="1920" height="540" fill="url(#sea)"/>
  <line x1="0" y1="660" x2="1920" y2="660" stroke="#1e3a5f" stroke-width="1.2" opacity="0.7"/>
  <ellipse cx="960" cy="660" rx="900" ry="200" fill="url(#haze)"/>
  <ellipse cx="960" cy="660" rx="160" ry="60" fill="url(#moon)"/>
</svg>
